<?xml version="1.0" encoding="UTF-8"?>
<svg id="Layer_1" data-name="Layer 1" xmlns="http://www.w3.org/2000/svg" viewBox="0 0 1500 768">
  <defs>
    <style>
      .cls-1 {
        fill: #cbbea8;
      }
    </style>
  </defs>
  <rect class="cls-1" x="0" width="1500" height="768"/>
  <g>
    <g>
      <path d="M893.47,543.5c.12.23-.79,4.86-1,5.01-.38.27-3.81-.1-4.77.06-18.15,3.04-35.15,1.35-53.57,1.58-110.58,1.42-221.8,5.89-332.21,10.05-10.02.38-24.96-.87-34.26.48-1.51.22-1.08,1.99-2.77.83.55-1.74-.52-3.71-.41-5.3s4.13-.04,5.34-1.75c115.75-2.85,231.44-9.05,347.2-9.98,23.68-.19,49.6,2.05,72.96-.39.8-.08,2.63-2.21,3.49-.58Z"/>
      <path d="M894.93,460.25l-20.31,65.92c-4.15-.62-3.55-3.57-4.89-5.98-5.1-9.17-9.96-18.35-14.5-27.82-1.97,11.45-7.38,22.4-12.69,32.51-1.05.48-2.41-.15-3.34.02-.85.16-.91,1.15-.98,1.17-1.97.51-.79-1.89-1.21-3.12-1.39-4.06-4.28-8.77-5.71-12.81-3.58-10.12-5.87-21.83-9.46-32.03-2.15-6.1-5.53-12.53-8.04-18.57,3.61.39,7.42.8,11.05.8,1.29,0,2.52-2.08,4.8.11l11.14,37.82,13.46-40.38c.96-.56,1.11-.55,1.88.27.83.88,4.67,10.37,5.45,12.35,2.45,6.26,6.1,15.84,7.87,22.13.44,1.57-.49,3.33.57,4.04l10.26-36.31c1.12-1.43,4.55.09,6.25.04.62-.02.93-.89,1.53-.88,2.23.03,4.62.73,6.88.74Z"/>
      <path d="M516.55,475.64c.09.09,1.19,1.97,1.03,2.35-5.52-.94-8.06,5.74-10.99,9.41-1.11-1.16-.23-1.92-2.07-3.31-7.24-5.47-18.24-3.19-23.31,3.91-10.79,15.1.4,34.31,19.04,30.82,1.74-.33,3.33-2.54,6.07-1.27.21-1.92.08-8.89-1.71-9.67-1.4-.6-7.3,2.3-9.5-.72-.7-.96,1.15-11.83,1.9-12.19,5.32,1.47,12.75,1.95,18.25,1.56.92-.06,4.24-2.23,6.32-.88l-3.06,31.51c-4.23-2.15-5.7,1.28-8.23,2.65-18.97,10.25-44.15-1.57-47-23.25-4.07-30.87,30.19-53.21,53.26-30.94Z"/>
      <path d="M804.52,472.16c26.93,29.92-17.17,73.7-46.09,39.69-26.11-30.71,18.47-70.37,46.09-39.69ZM767.83,501.64c3.43,5.95,13.46,9.99,19.99,8.08,13.4-3.92,15.59-23.13,4.61-30.79-7.63-5.31-18.59-6.87-24.96.91-4.65,5.68-3.06,15.86.36,21.8Z"/>
      <path d="M740.92,468.63c-4.46,2.32-8.64,5.47-11.23,10.1-6.29-5.74-16.77-7.05-23.44-1.34-5.74,4.92-6.74,19.81-2.23,25.74,3.03,3.99,7.95,7.93,13.07,8.47.55.06.92-.94,1.47-.96,1.87-.06,8.13.37,9.35-.68.65-.56,1.02-7.31.22-7.79-1.57-.93-10.49.34-10.92-.58,1.52-4.29.35-9.03,2.22-13.17l22.57.84-2.02,31.75c-2.47.14-5.97.49-8.31,1.08-11.05,2.8-18.68,5.74-29.65-1.72-.52-.35-.11-1.28-.61-1.65-3.19-2.39-7.08-4.51-9.31-8.04-7.46-11.79-5.64-33.32,4.87-42.83,3.47-3.14,12.06-7.04,16.55-7.44,10.93-.97,18,3.65,27.39,8.22Z"/>
      <path d="M634.43,528.21c-1.17-.52-2.3-.78-3.59-.83-3.17-.14-8.81,2.33-11.57,1.09s-3.24-13.74-7.18-13.6c-.94.03-1.32,1.13-2.36,1.22-2.66.22-13.81-.45-14.95.07-2.84,1.3-4.16,10.58-5.85,13.44l-14.55-.27,7-15.79,8.54-22.68c2.65-3.02,11.95-27.57,13.43-28.02,1.13-.34,2.53.41,3.1,1.46l27.98,63.94ZM603.24,490.36l-3.45,10.06c-.14.42-2.89,2.11-.49,2.56s5.73-1.16,8.37-.64c.86-2.27-3.7-9.32-4.42-11.98Z"/>
      <path d="M680.4,468.79c-.22,1.37-1.39-.11-2.2.17-1.63.56-6.81,9.05-7.18,11.34-3.76-4.75-12.6-7.78-16.86-1.92s13.07,10.77,17.1,13.06c14.3,8.14,11.75,23.66-.41,32.81-11.83,8.9-22.42,2.29-33.58-4.36-.49-1.03,6.67-9.64,7.8-11.25,4.79,3.87,16.97,9.18,20.86,1.9s-8.64-8.78-13.4-11.09c-10.05-4.89-16.23-12.91-11.47-24.38,7.11-17.12,26.21-15.74,39.34-6.27Z"/>
      <path d="M545.75,515.6c.16.31,5.93.73,6.88.73.6,0,.96-.9,1.53-.88,5.65.23,11.41,2.34,17.08.36-.26,2.48-1.07,5.83-.88,8.23s1.95,3.71,1.46,5.92l-41.27.57c1.42-4.66,1.63-10.12,1.84-15.04.72-16.74.03-33.62-.32-50.34,4.75.87,9.65.86,14.14-.58l-.46,51.03Z"/>
      <g>
        <path d="M721.92,130.47c11.45,9.98,21.15,25.62,24.77,40.69,5.02,20.92,1.45,43.28,4.97,63.94.73,4.27,1.58,6.82-.23,11.07-2.66,6.25-9.45,11.03-16.28,8.56-4.97-1.8-10.93-7.96-11.89-13.23-.43-2.38.92-19.83-.12-20.16-3.98,1.33-7.75.53-11.64.74-19.2,1.03-39.83,1.27-59.02,1.32-4.04.01-8.33-.89-12.45-.33.4-2.35-.89-10.73,1.6-11.49l81.27.39c1.47-.63-1.51-20.82-2.14-23.49-6.46-27.11-32.37-42.4-58.87-31.11-8.95,3.81-15.17,11.61-18.8,20.57s-7.15,42.84-6.47,52.84c.38,5.53,3.51,7.48.54,14.17-2.73,6.14-10.02,12.33-17.04,10.11-4.6-1.46-9.99-8.62-10.57-13.35-.48-3.97,1-8.74,1.06-12.64.55-35.18-4.08-68.25,23.46-95.59,23.4-23.23,62.58-25.03,87.86-2.99ZM719.69,143.67c-12.48-14.07-41.93-22.57-59.63-14.88-27.51,11.96-37.34,35.48-38.7,64.4-.54,11.62,2.05,27.8.67,38.34-.61,4.67-5.51,13.54,3.42,13.04,7.4-.42,2.84-5.38,1.76-8.07-2.76-6.88,3.12-54.77,6.43-62.58,17.23-40.57,72.52-42.01,92.1-2.93,7.85,15.68,8.48,42.05,9.18,59.58.1,2.43-1.64,11.22-.8,12.22,1.17,1.4,6.99,2.35,8.57.74,2.66-2.7-1.25-5.12-2.31-6.97-2.11-3.68-.67-33.37-1.05-40.47-1.09-20.19-5.97-37.03-19.63-52.44Z"/>
        <path d="M607.68,221.82l-69.11.92-8.03,208.54c4.21,0,8.46.54,12.67.58,1.07.01,1.4-.91,2-.91,32.7.36,64.87,0,97.15-.76,4.91-.12,12.5,1.95,16.18-1.48l1.15,10.11c-.77,2.14-4.5,1.7-6.33,2.1-6.06,1.34-9.62.68-15.76.83-32.34.8-65.52,1.32-97.69,2.28-5.86.18-12.33-.55-17.67.66-1.09.25-2.31.25-3.42.41l8.88-233.12c.39-.69,8.91.23,10.82.19,20.31-.44,41.67-.93,62.03-1.06,2.07-.01,8.44.21,9.1,2.27.35,1.09-.14,7.82-1.97,8.45Z"/>
        <path d="M844.55,438.62c-7.09,1.89-27.72.16-36.5.21-26.93.18-54.72,1.33-81.53.92-1.44-.02-8.02-.64-8.46-1.51,1.65-2.55-1.11-9.2,2.35-9.88l116.24-1.7-13.1-203.08c-.3-.74-.29-1.03-1.17-1.19-1.12-.21-7.63.28-9.56.33-14.16.42-29.44.77-43.72.55-2.12-.03-15.7-.53-16.24-1.15-.66-.76-.52-9.32.21-9.83.22-.16,2.76.08,3.67-.15,8.45-2.13,13.58-.13,21.98.28,13.36.66,27.06-.35,40.71-.8,2.16-.07,12.04-.2,13.36.17.59.16.91.37,1.04.99.45,7.98,1.38,15.96,1.86,23.94,3.4,56.69,6.37,113.39,9.82,170.08.26,4.25,3.22,29.64,2.02,31.27-.83.81-1.96.28-2.95.55Z"/>
        <path d="M585.47,406.7c-2.03-1.86-7.48,1.12-8.5-.15l-6.45-37.54-8.22,37.49c-2.34-.21-5.38-.24-7.65.25-1.34.29-1.09,1.49-2.09,1.06l-6.83-90.74c2.32,2.19,10.12-2.1,11,.67l3.78,55.58c3.87-18.04,5.49-36.66,5.78-55.03l9.12-1.89c-1.15,15.13,2.89,29.98,2.83,45.09l1.78,9.22,5.75-52.65c.28-.43,8.93-1.97,9.95-2.07s1.23-.15,1.64.94c-5.88,29.62-9.73,59.71-11.87,89.78Z"/>
        <path d="M778.12,401.85c-1.81.46-6.18,2.17-7.09.4l-12.81-49.44.6,47.97c-.37,1.61-8.68,2.51-9.17,1.82l-1.99-86.75,9.19.09,14.23,49.03c.32-16.12.1-32.37-1.97-48.38,3.1.54,5.98-.03,9.04-.39.73-.09.93-1.02,1.37.49l1.53,84.67c-.89.66-1.97.24-2.93.48Z"/>
        <path d="M683.72,373.37l.48,28.02c-.24.74-4.63-.04-5.66.11-.56.08-4.7,2.71-5.07.55l.23-85.24,10.89-.15-1.25,35.25c4.74-11.53,11.08-22.72,12.15-35.37l2.89.6,8.93-1.19c-3.39,12.54-9.97,23.88-12.8,36.56,3.77,16.48,6.5,33.43,12.83,49.13-.17.52-9.75-2.22-10.34.72l-.68-.23-9.16-38.81-3.45,10.06Z"/>
        <path d="M813.24,318.41c.17.15-.05,1.06.27,1.41,5.18,5.41,4.33,6.39,4.97,13.61,1.14,12.79,1.62,27.81,1.76,40.7.08,7.48,1.11,18.14-3.81,24.05-5.68,6.83-15.69,2.7-23.32,5.32l-3.82-86.95c5.63-.24,11.32.47,16.95.73.61.03.95-1.01,1.47-.95,1.13.12,4.73,1.37,5.52,2.09ZM806.37,392.33c4.01-1.65,4.02-3.93,4.26-7.73.77-12.36.58-42.96-1.83-54.51-1.15-5.5-5.39-2.55-9.54-4.28l2.53,66c.58,1.94,3.1,1.13,4.58.52Z"/>
        <path d="M666.98,316.05c-1.45,3.71-2.58,7.56-2.42,11.57-4.94-1.8-9.63.64-14.77.47-2.08,1.66-.75,20.47-1.4,24.18,1.12,1.99,10.2-1.35,12.78.01,1.57.83-.16,10.34-1.16,10.92-.49.29-9.75-.6-11.31-.7-.6,9.95-1.36,19.95-.95,29.91,1.5,1.17,1.46-.64,2.35-.7,1.48-.1,14.05.52,14.47,1.11l.59,9.82c-2.34-.88-4.65.74-6,.78-5.11.18-11.11-.99-16.38-.53-1.03.09-4.06,1.83-6.04,1.25,2.22-13.76,1.17-28.08,1.46-41.99.31-14.97,1.96-29.97.49-44.96l28.3-1.15Z"/>
        <path d="M617.9,326.64c-.85.18-3.32,1.51-4.65,1.58l.29,26.09c4.38-.26,8.86-2.16,13.21-.12-1.45,2.05-.44,8.77-2.02,10.05-.86.69-10.41-.36-11.04.71l-1.54,26.12c.19.73.35.82,1.04,1.01,2.67.73,12.5-.74,14.65.43l.88,10.07c-3.96-.1-7.65.98-11.58,1.08-5.25.14-10.93-1.55-15.79.75,3-29.04,3.25-58.47,2.55-87.52,2.41,1.43,4.27-.29,5.88-.42,6.62-.52,13.5.85,19.7-.87,1.15.69-.35,8.97-.47,10.71-3.82.13-7.3-.47-11.13.32Z"/>
        <path d="M740.7,315.78c-1.08,3.25-.95,6.67-.32,9.96-5.85-.88-11.26.91-17.27.66l.22,22.12c3.36,1.99,9.98-.48,12.89,1.35.64.4,1.61,10.01-1.16,11.1-1.46.57-10.42-1.08-11.24-.56l-.16,30.96c.86,2.6,3.34-.04,4.12-.08,3.67-.15,8.24,1.01,12.09.32l.86,9.87c-8.6,1.03-17.7-.68-26.45,1.42l-.1-86.46c.78-1.2,8.19-.04,10.21-.11.54-.02.89-.88,2-.91,4.74-.12,9.55.52,14.29.37Z"/>
        <path d="M714.92,268.92l-.33,37.09-7.58-.3-1.06-17.38c-2.27,4.82-4.8,10.28-7.46,14.86-.44.76-.73,1.19-1.64,1.4-5.27-4.15-6.68-10.7-9.45-16.43l-1.56,18.07-7.36-1.01.98-36.85,6.33,1.2c4.56,6.06,8.09,12.81,11.32,19.58,1.08-.34,7.33-16.78,10.82-19.79,1.79-1.54,4.76-.59,6.97-.46Z"/>
        <path d="M581.39,269.59c-2.19,9.12,1.63,21.55-3.71,29.61-.71,1.08-6.07,5.95-7.16,6.61-5.86,3.58-14.94.18-18.3-5.5-5.42-9.13-.65-20.22-2.83-30.07,1.69.71,9.14-1.8,10.17-.37.74,6.06-3.94,24.24,2.75,27.28,3.33,1.52,8.23-.68,9.51-4.07,1.42-3.77.02-16.17.58-21.12.11-.99.12-1.99.67-2.88l8.32.5Z"/>
        <path d="M814.85,269.12l-.31,9.97c-1.6-1.15-14.1-1.38-14.57-.62-3.78,6.11,3.78,5.66,7.96,5.45,1.35-.06,1.62-1.72,3.2-.58.62.45.43,7.99-.2,8.44l-11.11-1.45-.75,6.72c5.71.77,10.83-.11,16.45-.55l-.55,10.66c-5.57-.41-12.27-1.76-17.77-1.56-.7.03-5.66,1.8-6.1,1.13l.57-37.8c7.89,2,15.43.15,23.18.2Z"/>
        <path d="M755.39,306.86c-2.11-1.42-8.51-.17-9.94-1.16-1.67-1.16.29-6.23-2.3-6.81-1.93-.43-4.38,1.57-5.62,1.79-1.11.19-4.93-.55-5.43-.15-.98.78-1.07,4.54-2.03,5.29-.3.23-7.41.19-7.58-.17.78-5.48,3.14-10.54,5.36-15.61,2.38-5.43,5.74-12.81,8.55-17.93,3.44-6.26,5.51-3.26,7.61,1.36,3.34,7.35,7.54,20.01,10.13,27.95.28.87,1.97,5.12,1.26,5.44ZM735.83,291.61c.4.84,6.13.12,6.36-.53-1.33-1.4-1.67-5.8-2.72-6.74-1.21-1.08-1.31.63-1.62,1.36-.81,1.9-1.26,3.99-2.02,5.91Z"/>
        <path d="M649.57,267.42c-1.32,2.23.48,8.17-1.32,9.64-1.47,1.21-8.62-.67-9.12.41l-.82,26.84c-.63,1.12-4.15-.01-5.51.04-.78.03-.82,1.91-2.35.72l-.1-27.08c-1.69-1.86-8.35-.49-9.31-1.8-.29-.39.84-8.24.93-9.7,9.11,2.27,18.41,1.08,27.58.93Z"/>
        <path d="M601.11,268.61c-.14,3.35-2.4,26.24-1.6,27.35.33.47,4.74.56,5.68.53,1.1-.04,1.36-.88,2-.9,2.76-.11,6.05.72,9.08-.06.36.2.12,7.44-.05,8.19-.14.63-2.25,1.54-2.78,1.6-4.61.51-11.11-.8-16.13-.24-1.02.11-1.32,1.01-1.9,1.12-1.49.28-3.26-.39-4.74.7-.15-12.79,1.8-25.85-.33-38.5l10.76.21Z"/>
        <path d="M783.79,269.31v8.93c-.63,1.48-7.52-1.45-8.51.22-1.16,1.96.71,21.15.26,25.19-.14,1.26-.37,2.46-.89,3.62-1.59-1.44-6.01-.35-6.96-.94-1.43-.89-.6-23.3-1-26.62-1.19-3.15-8.61-.82-9.15-1.58l.77-9.04,25.5.22Z"/>
        <path d="M707.1,440.72c-7.98-.88-9.33-8.02-15.18-12.19-1.01,1.84-.12,12.03-.47,12.61-.57.96-4.29.2-5.44.1,1.31-4.1-.88-21.74.6-24.17.8-1.31,2.13-.36,3.01.14,4.65,2.6,6.09,8.1,11.1,10.46.9-.43-.34-7.94.35-9.45.86-1.89,3.25-2.62,4.73-.82,1.74,2.12,2.36,22.83,1.29,23.32Z"/>
        <path d="M667.88,268.28c-2.67,12.01-1.38,24.93-1.14,37.21-3.01-.22-6.11-.65-9.06.38l-.15-36.85c.18-.61,6.29.24,7.56.09,1.45-.17,1.08-2,2.78-.83Z"/>
        <path d="M679.7,249.93c-1.85,1.11-.43,7.52-1.29,8-1.42-.64-4.01.29-4.52-1.54-.25-.91.07-13.06.33-14.59.29-1.74.65-3.39,1.37-5,6.19,1.3,3.42,2.17,3.49,6.09.05,2.68,4.1,2.02,5.92,2.53l1.25-8.05c2.64.75,4.31-.7,4.49,2.7.09,1.77-.83,16.57-1.34,17.27-.55.77-3.68.87-4.31.49-1.43-.86.59-5.37-.43-6.73-.62-.83-4.6-1.4-4.96-1.18Z"/>
        <path d="M708.16,243.24c-.75.59-8.92-1.9-7.37,1.43.4.86,6.95.76,6.81,2.84-.27,4.38-6.99.53-7.44,3.53-.34,2.27,5.93.55,7.46,1.52,1.28.82,1.51,3.83.43,4.62-.56.41-12.8-.6-13.32-1.46,1.3-2.26.44-17.02,1.24-17.35.24-.1,1.5.75,2.25.74.69-.01.87-.9,2-.95,1.29-.06,7.64.24,8.28.69,1.12.79.45,3.76-.35,4.38Z"/>
        <path d="M673.77,440.89c-.67-.99-.72-23.34.4-23.88,1.56.9,4.55-.12,5.2,1.77l.58,21.68c-.04,1.73-6,.7-6.19.43Z"/>
        <path d="M669.04,244.63c-.33.15-3.5-1.88-4.35-.37-1.06,2.19-.11,11.15-.62,12.25-.39.85-4.44.33-5.58.77.44-1.76,1.46-13.79,1.04-14.37-.51-.72-7.16,2.15-4.07-3.95.91-1.8,11.14-.03,13.64-.42,1.4.89.6,5.78-.06,6.08Z"/>
      </g>
    </g>
    <g>
      <path d="M724.01,620.08c.57.57,5.4,14.67,4.81,15.75-1.37,2.54-20.09,3.59-21.87,2.86-.64-.26-6.24-9.1-9.63-10.11-.28-5.86,6.61-16.06,1.94-20.64-7.62-7.46-5.54,5.93-8.83,11.37-1.36.62-14.16-7.41-16.13-9.34-3.24-3.17-2.91-7.8-6.95-9.51-2.28,5.77-7.6,18.99-12.47,22.41-4.5,3.16-23.57-12.65-19.34-23.27,4.66-11.71,19.25,9.28,21.62,8.16.91-3.35,5.93-18.51,3.39-19.54-18.43,5.82-37.01,1.75-55.66.48-36.91,3.25-77.58,4.73-114.96.64-1.72-.19-5.11,1.98-4.91-2.61.06-1.26,21.95-.81,24.18-.88,41.51-1.26,84.34-1.28,125.88-2.79,5.12-.19,25.47,2.17,27.38,1.67,2.16-.57,7.97-10.46,16.48-6.2,5.8,2.91-4.53,4.5-4.83,4.94-5.87,8.57,12.51,17.8,18.5,21.47l-8.47-14.26c8.98-9.39,10.54-26.93,24.91-28.55,1.26.68,1.53,29.74,9.61,14.4,3.13-5.94,2.69-15.66,10.39-13.62,17.24,4.59-4.57,34.47-10.77,42.51-2.61,3.38-9.38,5.3-3.36,10.07,2.72,2.15,6.66,2.16,9.09,4.58ZM707.9,607.34c1.44-.86,1.94-24.84-3.79-26.29-4.94,9.42-2.56,18.86,3.79,26.29Z"/>
      <path d="M769.25,580.72c.45,1.93-13.13,8.06-15.01,9.87-7.28,7.04-13.57,31.9-24.44,27.62-18.77-7.4,3.18-20.54,10.93-28.71,10.06-10.6,11.36-22.3,28.52-8.79Z"/>
      <path d="M861.92,583.91c-4.14.85-12.34,5.26-15.46,5.75-6.11.96-15.07-1.86-21.46-1.71-5.31.13-14.14,2.22-17.67,2.25-4.61.04-32.17.43-33.67-.32-1.47-.73-.87-5.36-1.57-7.09l89.83,1.12Z"/>
      <path d="M673.54,616.34c.22.43-2.38,2.48.86,4.29,5.37,2.99,14.09,6.01,20.23,6.11-2.17,5.89-6.96,16.12-13.34,17.62-9.09,2.14-19.39-19.85-11.17-28.48.4-1.49,3.26.16,3.41.46Z"/>
      <path d="M752.78,620.07c5.55,1.63,3.04,14.09-3.05,15.6-6.16-.45-7.06-18.57,3.05-15.6Z"/>
      <path d="M765.11,613.31c-6.5-1.52-7.18-9.76-4.67-15.21,7.86,2.69,7.42,7.47,4.67,15.21Z"/>
    </g>
  </g>
</svg>